<svg id="Layer_1" data-name="Layer 1" xmlns="http://www.w3.org/2000/svg" viewBox="0 0 601.96 338.44"><defs><style>.cls-1{fill:#2d2d2b;}.cls-2{fill:#8ac593;}.cls-3{fill:#42864b;}</style></defs><path class="cls-1" d="M283.89,141.8v30.43h-8.36V160.32h-10.2v11.91H257V141.8h8.36V153h10.2V141.8Z"/><path class="cls-1" d="M287,165.54a6.51,6.51,0,0,1,1.24-3.94,8.2,8.2,0,0,1,3.45-2.67,12.38,12.38,0,0,1,5-1,14.32,14.32,0,0,1,2.51.21,8.08,8.08,0,0,1,2,.64v-.68a2.69,2.69,0,0,0-.92-2.26,4.77,4.77,0,0,0-3-.74,10,10,0,0,0-3.53.62,17,17,0,0,0-3.45,1.82L288,152.51a17.68,17.68,0,0,1,4.78-2.16,19.77,19.77,0,0,1,5.38-.71q5.35,0,8.29,2.37c2,1.57,2.94,3.91,2.94,7v4.27a2.64,2.64,0,0,0,.34,1.57,1.65,1.65,0,0,0,1.2.52v6.86c-.66.14-1.28.25-1.86.32a13.55,13.55,0,0,1-1.57.11,5.85,5.85,0,0,1-3.32-.79,3.7,3.7,0,0,1-1.48-2.34l-.17-.81a10.44,10.44,0,0,1-3.47,2.93,9.16,9.16,0,0,1-4.2,1,8.64,8.64,0,0,1-4-.93,7.13,7.13,0,0,1-2.83-2.55A6.61,6.61,0,0,1,287,165.54Zm13.2.48a3.32,3.32,0,0,0,.77-.71,1.28,1.28,0,0,0,.3-.79v-1.58a10.64,10.64,0,0,0-1.56-.41,9.59,9.59,0,0,0-1.57-.16,4.24,4.24,0,0,0-2.46.69,2.06,2.06,0,0,0-1,1.74,1.72,1.72,0,0,0,.35,1,2.25,2.25,0,0,0,.94.73,3.49,3.49,0,0,0,1.37.26,5.53,5.53,0,0,0,1.52-.22A5,5,0,0,0,300.17,166Z"/><path class="cls-1" d="M328.25,172.66a9,9,0,0,1-4.37-1,7.29,7.29,0,0,1-2.92-2.93v3.51h-7.07V140.94H322v12.47a6.72,6.72,0,0,1,2.79-2.8,8.76,8.76,0,0,1,4.24-1,8.53,8.53,0,0,1,3.82.87,9.25,9.25,0,0,1,3.06,2.42,11.56,11.56,0,0,1,2,3.69,14.32,14.32,0,0,1,.73,4.61,12.63,12.63,0,0,1-.8,4.54,11.76,11.76,0,0,1-2.18,3.64,9.7,9.7,0,0,1-3.3,2.41A10.3,10.3,0,0,1,328.25,172.66Zm-2.36-6.86a4.73,4.73,0,0,0,1.8-.33,4.36,4.36,0,0,0,1.41-.92,4.17,4.17,0,0,0,.93-1.42,5.18,5.18,0,0,0,.32-1.86,5.32,5.32,0,0,0-.54-2.4,4.36,4.36,0,0,0-1.46-1.73,3.59,3.59,0,0,0-2.12-.64,3.71,3.71,0,0,0-1.67.41,5.3,5.3,0,0,0-1.48,1.13,5.63,5.63,0,0,0-1.05,1.67v3.87a7.23,7.23,0,0,0,.84,1,4.87,4.87,0,0,0,.92.7,4.75,4.75,0,0,0,1,.41A4.4,4.4,0,0,0,325.89,165.8Z"/><path class="cls-1" d="M341.62,147.8v-6.86h8.14v6.86Zm0,24.43V149.68h8.14v22.55Z"/><path class="cls-1" d="M369.69,170.94a25.24,25.24,0,0,1-2.38.88,16.3,16.3,0,0,1-2.57.62,15,15,0,0,1-2.55.22,9,9,0,0,1-3.38-.61,5.19,5.19,0,0,1-2.47-2,6.85,6.85,0,0,1-.92-3.79V156.11h-2.79V150h2.79v-7.08h8.14V150H368v6.12h-4.42v7.19a2,2,0,0,0,.48,1.51,1.8,1.8,0,0,0,1.28.43,5.26,5.26,0,0,0,1.37-.21,13.44,13.44,0,0,0,1.55-.52Z"/><path class="cls-1" d="M370.76,165.54A6.52,6.52,0,0,1,372,161.6a8.14,8.14,0,0,1,3.45-2.67,12.33,12.33,0,0,1,5-1,14.32,14.32,0,0,1,2.51.21,8,8,0,0,1,2,.64v-.68a2.72,2.72,0,0,0-.92-2.26,4.81,4.81,0,0,0-3-.74,10.06,10.06,0,0,0-3.54.62,17,17,0,0,0-3.45,1.82l-2.36-5.06a17.82,17.82,0,0,1,4.78-2.16,19.82,19.82,0,0,1,5.38-.71c3.57,0,6.34.79,8.29,2.37s2.94,3.91,2.94,7v4.27a2.64,2.64,0,0,0,.34,1.57,1.65,1.65,0,0,0,1.2.52v6.86c-.65.14-1.28.25-1.86.32a13.55,13.55,0,0,1-1.57.11,5.88,5.88,0,0,1-3.32-.79,3.7,3.7,0,0,1-1.48-2.34l-.17-.81a10.44,10.44,0,0,1-3.47,2.93,9.1,9.1,0,0,1-4.2,1,8.64,8.64,0,0,1-4-.93,7.13,7.13,0,0,1-2.83-2.55A6.69,6.69,0,0,1,370.76,165.54ZM384,166a3.37,3.37,0,0,0,.78-.71,1.28,1.28,0,0,0,.3-.79v-1.58a10.79,10.79,0,0,0-1.57-.41,9.48,9.48,0,0,0-1.56-.16,4.27,4.27,0,0,0-2.47.69,2,2,0,0,0-1,1.74,1.71,1.71,0,0,0,.34,1,2.32,2.32,0,0,0,.94.73,3.49,3.49,0,0,0,1.37.26,5.6,5.6,0,0,0,1.53-.22A5,5,0,0,0,384,166Z"/><path class="cls-1" d="M408.82,172.66a14,14,0,0,1-5.29-.93,11.3,11.3,0,0,1-3.88-2.55,11,11,0,0,1-2.4-3.69,12,12,0,0,1,.62-10,10.89,10.89,0,0,1,4.2-4.24,13.38,13.38,0,0,1,6.75-1.6,12.79,12.79,0,0,1,6.86,1.72,10.92,10.92,0,0,1,4.16,4.41l-7.93,2.4a3.79,3.79,0,0,0-1.35-1.24,3.63,3.63,0,0,0-1.78-.43,3.76,3.76,0,0,0-2,.56,4,4,0,0,0-1.44,1.58,6.16,6.16,0,0,0,0,5,4,4,0,0,0,1.44,1.61,3.75,3.75,0,0,0,2,.55,3.71,3.71,0,0,0,1.24-.19,3.55,3.55,0,0,0,1.06-.58,4.17,4.17,0,0,0,.83-.9l7.93,2.4a10.31,10.31,0,0,1-2.46,3.17,11.87,11.87,0,0,1-3.69,2.17A14,14,0,0,1,408.82,172.66Zm-.64,9a10.12,10.12,0,0,1-2.57-.36,13.08,13.08,0,0,1-2.74-1.1l1.88-4.15a3.15,3.15,0,0,0,2.06.81,2,2,0,0,0,1.29-.43,1.54,1.54,0,0,0,.51-1.24,2.8,2.8,0,0,0-.47-1.48,6.86,6.86,0,0,0-1.33-1.48l2.57-1.54a14.87,14.87,0,0,1,2.81,2.66,5.36,5.36,0,0,1,1.18,3.47,5,5,0,0,1-1.27,3.36A4.86,4.86,0,0,1,408.18,181.66Z"/><path class="cls-1" d="M421.17,165.54a6.51,6.51,0,0,1,1.24-3.94,8.2,8.2,0,0,1,3.45-2.67,12.35,12.35,0,0,1,5-1,14.4,14.4,0,0,1,2.51.21,8.08,8.08,0,0,1,2,.64v-.68a2.69,2.69,0,0,0-.92-2.26,4.79,4.79,0,0,0-3-.74,10,10,0,0,0-3.53.62,17,17,0,0,0-3.45,1.82l-2.36-5.06a17.68,17.68,0,0,1,4.78-2.16,19.77,19.77,0,0,1,5.38-.71q5.36,0,8.29,2.37c2,1.57,2.94,3.91,2.94,7v4.27a2.64,2.64,0,0,0,.34,1.57,1.65,1.65,0,0,0,1.2.52v6.86c-.66.14-1.28.25-1.87.32a13.24,13.24,0,0,1-1.56.11,5.85,5.85,0,0,1-3.32-.79,3.7,3.7,0,0,1-1.48-2.34l-.17-.81a10.44,10.44,0,0,1-3.47,2.93,9.16,9.16,0,0,1-4.2,1,8.64,8.64,0,0,1-4-.93,7.07,7.07,0,0,1-2.83-2.55A6.61,6.61,0,0,1,421.17,165.54Zm14.14-17.83a4.65,4.65,0,0,1-2.23-.51c-.62-.34-1.2-.69-1.73-1a3.22,3.22,0,0,0-1.78-.51,1.71,1.71,0,0,0-1.37.49,2,2,0,0,0-.52,1c-.05.34-.08.53-.08.55h-4.33a6.94,6.94,0,0,1,.32-1.67,9.08,9.08,0,0,1,1.05-2.29,6.82,6.82,0,0,1,1.87-2,4.48,4.48,0,0,1,2.72-.82,4.34,4.34,0,0,1,2.31.56c.6.37,1.17.74,1.69,1.09a3.11,3.11,0,0,0,1.78.54,1.75,1.75,0,0,0,1.4-.52,2.68,2.68,0,0,0,.6-1.07q.15-.56.15-.6h4.28a5.8,5.8,0,0,1-.34,1.46,11.56,11.56,0,0,1-1.07,2.29,7.63,7.63,0,0,1-1.89,2.12A4.46,4.46,0,0,1,435.31,147.71ZM434.37,166a3.53,3.53,0,0,0,.77-.71,1.28,1.28,0,0,0,.3-.79v-1.58a10.64,10.64,0,0,0-1.56-.41,9.59,9.59,0,0,0-1.57-.16,4.24,4.24,0,0,0-2.46.69,2.06,2.06,0,0,0-1,1.74,1.77,1.77,0,0,0,.34,1,2.35,2.35,0,0,0,.95.73,3.45,3.45,0,0,0,1.37.26,5.58,5.58,0,0,0,1.52-.22A5,5,0,0,0,434.37,166Z"/><path class="cls-1" d="M459.19,172.66a14.23,14.23,0,0,1-5.32-.93,11.11,11.11,0,0,1-3.88-2.55,10.9,10.9,0,0,1-2.35-3.69,11.94,11.94,0,0,1-.8-4.34,12.13,12.13,0,0,1,.8-4.36A10.71,10.71,0,0,1,450,153.1a11.21,11.21,0,0,1,3.88-2.53,14.23,14.23,0,0,1,5.32-.93,14.06,14.06,0,0,1,5.33.93,11.12,11.12,0,0,1,3.86,2.53,10.74,10.74,0,0,1,2.36,3.69,12.12,12.12,0,0,1,.79,4.36,11.93,11.93,0,0,1-.79,4.34,10.85,10.85,0,0,1-6.22,6.24A14.06,14.06,0,0,1,459.19,172.66Zm-4-11.51a5.51,5.51,0,0,0,.52,2.49,3.77,3.77,0,0,0,1.41,1.61,3.83,3.83,0,0,0,5.53-1.61,6.33,6.33,0,0,0,0-5,3.81,3.81,0,0,0-1.41-1.6,4.07,4.07,0,0,0-4.12,0,3.74,3.74,0,0,0-1.41,1.6A5.51,5.51,0,0,0,455.2,161.15Z"/><path class="cls-1" d="M280.67,189.43h-8.74v23.14h-8.36V189.43h-8.79v-7.29h25.89Z"/><path class="cls-1" d="M297.94,197a16.69,16.69,0,0,0-4.28.51,5.28,5.28,0,0,0-2.88,1.72v13.37h-8.14V190.33h7.46v4a9.42,9.42,0,0,1,3-3.49,6.63,6.63,0,0,1,3.81-1.22h.67a1.37,1.37,0,0,1,.36,0Z"/><path class="cls-1" d="M299,205.88a6.57,6.57,0,0,1,1.24-3.94,8.2,8.2,0,0,1,3.45-2.67,12.42,12.42,0,0,1,5-1,14.32,14.32,0,0,1,2.51.21,8.08,8.08,0,0,1,2,.64v-.68a2.69,2.69,0,0,0-.92-2.26,4.77,4.77,0,0,0-3-.74,10,10,0,0,0-3.53.62,17,17,0,0,0-3.45,1.82L300,192.85a17.68,17.68,0,0,1,4.78-2.16,19.77,19.77,0,0,1,5.38-.71q5.35,0,8.29,2.37c2,1.57,2.94,3.91,2.94,7v4.27a2.64,2.64,0,0,0,.34,1.57,1.65,1.65,0,0,0,1.2.52v6.86c-.66.14-1.28.25-1.86.32a13.55,13.55,0,0,1-1.57.11,5.88,5.88,0,0,1-3.32-.79,3.7,3.7,0,0,1-1.48-2.34l-.17-.81a10.44,10.44,0,0,1-3.47,2.93,9.16,9.16,0,0,1-4.2,1,8.64,8.64,0,0,1-4-.93,7.13,7.13,0,0,1-2.83-2.55A6.61,6.61,0,0,1,299,205.88Zm13.2.48a3.32,3.32,0,0,0,.77-.71,1.28,1.28,0,0,0,.3-.79v-1.58a10.31,10.31,0,0,0-1.56-.41,9.59,9.59,0,0,0-1.57-.16,4.24,4.24,0,0,0-2.46.69,2.06,2.06,0,0,0-1,1.74,1.72,1.72,0,0,0,.35,1,2.32,2.32,0,0,0,.94.73,3.49,3.49,0,0,0,1.37.26,5.53,5.53,0,0,0,1.52-.22A5,5,0,0,0,312.17,206.36Z"/><path class="cls-1" d="M348.56,212.57h-8.14V200.19a3.2,3.2,0,0,0-.75-2.36,2.41,2.41,0,0,0-1.74-.73,3.3,3.3,0,0,0-1.45.38,5,5,0,0,0-1.42,1.08,5.46,5.46,0,0,0-1,1.58v12.43h-8.14V190.33h7.33v3.36a7.15,7.15,0,0,1,2.06-2,9.49,9.49,0,0,1,2.87-1.25,14.16,14.16,0,0,1,3.55-.42,7.32,7.32,0,0,1,3.69.8,5.38,5.38,0,0,1,2.06,2.07,8.21,8.21,0,0,1,.9,2.63,16.74,16.74,0,0,1,.21,2.51Z"/><path class="cls-1" d="M361.55,213a17.84,17.84,0,0,1-5.81-1,13,13,0,0,1-4.82-2.8l2.79-5a22.88,22.88,0,0,0,4.05,2.15,9.81,9.81,0,0,0,3.53.77,3.19,3.19,0,0,0,1.33-.21.71.71,0,0,0,.43-.69.8.8,0,0,0-.3-.64,3.76,3.76,0,0,0-1-.5c-.45-.17-1-.35-1.7-.55q-2.65-.93-4.43-1.72a6.71,6.71,0,0,1-2.66-2,5,5,0,0,1-.88-3.09,7.1,7.1,0,0,1,1.16-4A7.86,7.86,0,0,1,356.6,191a12.29,12.29,0,0,1,5.21-1,15.47,15.47,0,0,1,4.56.71,12.44,12.44,0,0,1,4.44,2.55l-3.09,5a22,22,0,0,0-3.62-1.88,7.64,7.64,0,0,0-2.64-.56,3.05,3.05,0,0,0-1,.13,1.23,1.23,0,0,0-.62.37,1,1,0,0,0-.22.67.89.89,0,0,0,.3.69,2.85,2.85,0,0,0,1,.5c.43.16,1,.33,1.63.52a33.83,33.83,0,0,1,4.75,1.7,6.73,6.73,0,0,1,2.72,2.07,5.27,5.27,0,0,1,.88,3.18,6.51,6.51,0,0,1-2.5,5.43A10.84,10.84,0,0,1,361.55,213Z"/><path class="cls-1" d="M389.15,213a9,9,0,0,1-4.24-.95,6.63,6.63,0,0,1-2.79-2.76V221.7H374V190.33h7.07v3.4a8.41,8.41,0,0,1,3-2.78,8.94,8.94,0,0,1,4.31-1,9.86,9.86,0,0,1,7.46,3.25,11.15,11.15,0,0,1,2.18,3.62,12.84,12.84,0,0,1,.77,4.56,13.63,13.63,0,0,1-1.24,5.94,10.39,10.39,0,0,1-3.41,4.13A8.41,8.41,0,0,1,389.15,213Zm-2.83-6.86a3.63,3.63,0,0,0,1.65-.37,3.94,3.94,0,0,0,1.31-1,4.73,4.73,0,0,0,.86-1.52,5.61,5.61,0,0,0,.3-1.85,5.09,5.09,0,0,0-.32-1.85,4.05,4.05,0,0,0-.92-1.42,4.37,4.37,0,0,0-1.42-.93,4.73,4.73,0,0,0-1.8-.33,4.4,4.4,0,0,0-1.09.14,4.26,4.26,0,0,0-1,.4,5.42,5.42,0,0,0-.92.66,5.67,5.67,0,0,0-.84,1v3.84a6,6,0,0,0,1.05,1.69,5.14,5.14,0,0,0,1.48,1.18A3.49,3.49,0,0,0,386.32,206.14Z"/><path class="cls-1" d="M400.47,205.88a6.51,6.51,0,0,1,1.24-3.94,8.2,8.2,0,0,1,3.45-2.67,12.35,12.35,0,0,1,5-1,14.21,14.21,0,0,1,2.5.21,8,8,0,0,1,2,.64v-.68a2.72,2.72,0,0,0-.92-2.26,4.81,4.81,0,0,0-3-.74,10.06,10.06,0,0,0-3.54.62,17,17,0,0,0-3.45,1.82l-2.36-5.06a17.82,17.82,0,0,1,4.78-2.16,19.87,19.87,0,0,1,5.38-.71c3.58,0,6.34.79,8.3,2.37s2.93,3.91,2.93,7v4.27a2.63,2.63,0,0,0,.35,1.57,1.61,1.61,0,0,0,1.2.52v6.86c-.66.14-1.28.25-1.87.32A13.39,13.39,0,0,1,421,213a5.83,5.83,0,0,1-3.32-.79,3.7,3.7,0,0,1-1.48-2.34l-.17-.81a10.37,10.37,0,0,1-3.48,2.93,9.1,9.1,0,0,1-4.2,1,8.67,8.67,0,0,1-4-.93,7.13,7.13,0,0,1-2.83-2.55A6.68,6.68,0,0,1,400.47,205.88Zm13.2.48a3.53,3.53,0,0,0,.77-.71,1.28,1.28,0,0,0,.3-.79v-1.58a11,11,0,0,0-1.56-.41,9.59,9.59,0,0,0-1.57-.16,4.24,4.24,0,0,0-2.46.69,2,2,0,0,0-1,1.74,1.71,1.71,0,0,0,.34,1,2.32,2.32,0,0,0,.94.73,3.54,3.54,0,0,0,1.38.26,5.58,5.58,0,0,0,1.52-.22A5,5,0,0,0,413.67,206.36Z"/><path class="cls-1" d="M442.69,197a16.77,16.77,0,0,0-4.29.51,5.25,5.25,0,0,0-2.87,1.72v13.37h-8.15V190.33h7.46v4a9.42,9.42,0,0,1,3-3.49,6.64,6.64,0,0,1,3.82-1.22h.66a1.5,1.5,0,0,1,.37,0Z"/><path class="cls-1" d="M456.31,213a14.27,14.27,0,0,1-5.27-.91,11.23,11.23,0,0,1-3.88-2.47,10.68,10.68,0,0,1-2.38-3.59,11.36,11.36,0,0,1-.81-4.26,12.38,12.38,0,0,1,1.41-5.87,10.87,10.87,0,0,1,4.16-4.3,15,15,0,0,1,13.55,0,10.78,10.78,0,0,1,4.15,4.22,11.7,11.7,0,0,1,1.42,5.7,11.1,11.1,0,0,1-.07,1.28q-.06.66-.15,1.17H452.63a3.27,3.27,0,0,0,.66,1.85,3.31,3.31,0,0,0,1.46,1,5.14,5.14,0,0,0,1.82.33,5.46,5.46,0,0,0,2.51-.6,3,3,0,0,0,1.56-1.67l6.9,2A10,10,0,0,1,465,210a12.2,12.2,0,0,1-3.8,2.17A14.57,14.57,0,0,1,456.31,213Zm-3.85-13.93h7.45a3.85,3.85,0,0,0-.62-1.77,3.41,3.41,0,0,0-1.28-1.13,4.36,4.36,0,0,0-3.65,0,3.41,3.41,0,0,0-1.28,1.13A3.85,3.85,0,0,0,452.46,199.07Z"/><path class="cls-1" d="M494,212.57h-8.14V200.19a3.24,3.24,0,0,0-.75-2.36,2.41,2.41,0,0,0-1.74-.73,3.38,3.38,0,0,0-1.46.38,5.11,5.11,0,0,0-1.41,1.08,5.46,5.46,0,0,0-1,1.58v12.43h-8.14V190.33h7.33v3.36a7.12,7.12,0,0,1,2.05-2,9.71,9.71,0,0,1,2.87-1.25,14.3,14.3,0,0,1,3.56-.42,7.35,7.35,0,0,1,3.69.8,5.36,5.36,0,0,1,2.05,2.07,8,8,0,0,1,.9,2.63A15.61,15.61,0,0,1,494,198Z"/><path class="cls-1" d="M513.75,211.28c-.74.32-1.54.61-2.38.88a16.3,16.3,0,0,1-2.57.62,15,15,0,0,1-2.55.22,9.09,9.09,0,0,1-3.39-.61,5.16,5.16,0,0,1-2.46-2,6.83,6.83,0,0,1-.92-3.8V196.45h-2.79v-6.12h2.79v-7.08h8.14v7.08H512v6.12h-4.41v7.19a2,2,0,0,0,.47,1.51,1.83,1.83,0,0,0,1.29.43,5.32,5.32,0,0,0,1.37-.21,15.41,15.41,0,0,0,1.54-.51Z"/><path class="cls-1" d="M526.91,213a14.29,14.29,0,0,1-5.28-.91,11.09,11.09,0,0,1-3.87-2.47,10.39,10.39,0,0,1-2.38-3.59,11.18,11.18,0,0,1-.82-4.26A12.28,12.28,0,0,1,516,195.9a10.84,10.84,0,0,1,4.15-4.3,15,15,0,0,1,13.55,0,10.81,10.81,0,0,1,4.16,4.22,11.8,11.8,0,0,1,1.41,5.7c0,.42,0,.85-.06,1.28s-.1.83-.15,1.17H523.22a3.1,3.1,0,0,0,2.12,2.88,5.14,5.14,0,0,0,1.82.33,5.46,5.46,0,0,0,2.51-.6,3,3,0,0,0,1.56-1.67l6.91,2a10,10,0,0,1-2.51,3.17,12.09,12.09,0,0,1-3.8,2.17A14.55,14.55,0,0,1,526.91,213Zm-3.86-13.93h7.46a4.09,4.09,0,0,0-.62-1.77,3.44,3.44,0,0,0-1.29-1.13,4,4,0,0,0-1.82-.4,3.9,3.9,0,0,0-1.82.4,3.44,3.44,0,0,0-1.29,1.13A3.85,3.85,0,0,0,523.05,199.07Z"/><path class="cls-2" d="M139.56,176.78A8.71,8.71,0,1,0,148.2,168,8.71,8.71,0,0,0,139.56,176.78Z"/><path class="cls-3" d="M202.59,219.4a9.4,9.4,0,0,0,9.31-9V133.65H240.6c5.08,0,8-3.12,8-8.16s-3.08-7.14-8.11-7.13h-75.4c-3.42,0-8.84.86-8.84,7.13,0,5.44,9.09,8.16,9.09,8.16h28.47v76.76a9.4,9.4,0,0,0,9.31,9"/><path class="cls-3" d="M203.08,220.9h-.49a11,11,0,0,1-10.32-10.41V135.15H165.08l-.21-.06c-.41-.13-10.16-3.11-10.16-9.6,0-5.56,3.67-8.63,10.34-8.63h75.4c6.13,0,9.57,3,9.61,8.62,0,5.92-3.58,9.62-9.45,9.67H213.39v75.26a11,11,0,0,1-10.32,10.48Zm-37.55-88.75h29.74v78.26a7.57,7.57,0,0,0,15.13-.06v-78.2H240.6c4.19,0,6.49-2.39,6.46-6.64,0-2.63-.78-5.65-6.56-5.65H165.05c-7.34,0-7.34,4.24-7.34,5.63C157.71,128.92,163.17,131.39,165.53,132.15Z"/><path class="cls-3" d="M117.61,158.43H89.05L113,134.14a9.28,9.28,0,0,0,2-10.26,9,9,0,0,0-8.56-5.38,9.39,9.39,0,0,0-6.42,2.82L67,154.85a10,10,0,0,0-2.77,6.76l0,1.7a5.33,5.33,0,0,0,0,.71v.79c0,.27,0,.53,0,.74v44.27a10,10,0,0,0,2.27,5.88,9.12,9.12,0,0,0,7.23,3.54h.07c5,0,8.58-4.61,8.55-9.65v-36h29.75V209.9A9.39,9.39,0,0,0,121.5,219h.09l46.3,0h2.34a13.4,13.4,0,0,0,13.4-13.4V193.68a8.43,8.43,0,0,0-8.43-8.43h-.63c-4.65,0-9,3.77-9,8.43V204H130.37V171.23L168,133.63c-5.28-1-.55-8-.58-13.55,0-.19,1.41-1.56,1.22-1.58-5.57-.83-8.83.57-8.83.57-1.57.31-6.72,3.88-20.89,18.06Z"/><path class="cls-3" d="M73.84,220.74a10.69,10.69,0,0,1-8.49-4.11,11.42,11.42,0,0,1-2.59-6.8V165.64c0-.25,0-.54,0-.83V164c0-.29,0-.54,0-.78v-1.63a11.38,11.38,0,0,1,3.2-7.82l33-33.53a10.83,10.83,0,0,1,7.45-3.27,10.53,10.53,0,0,1,10,6.28,10.77,10.77,0,0,1-2.27,11.91L92.63,156.92H117l20.86-20.87c16.93-16.92,20.39-18.19,21.52-18.43a19.73,19.73,0,0,1,9.48-.62l.89.13.32.86c.33.91-.21,1.52-.9,2.28l-.26.29a27.15,27.15,0,0,1-1.09,5.8c-.54,2-1.15,4.36-.61,5.23.06.1.25.4,1.08.56l2.77.54-39.18,39.15V202.5h32.22v-8.82c0-5.39,4.8-9.93,10.48-9.93h.63a9.94,9.94,0,0,1,9.93,9.93v11.86a14.92,14.92,0,0,1-14.9,14.9l-48.63,0a11,11,0,0,1-11-10.54V175.11H83.88v34.48C83.92,215.69,79.42,220.69,73.84,220.74ZM106.63,120h-.21a7.87,7.87,0,0,0-5.39,2.37l-33,33.53a7.52,7.52,0,0,0-1.67,2.53,7.71,7.71,0,0,0-.67,3.16l0,1.8v.08a4.68,4.68,0,0,0,0,.55v.78a4.91,4.91,0,0,0,0,.57v44.45a8.63,8.63,0,0,0,1.95,5,7.66,7.66,0,0,0,6.05,3c4,0,7.15-3.68,7.12-8.13v-37.5h32.75V209.9a7.89,7.89,0,0,0,7.87,7.56l48.73,0a11.92,11.92,0,0,0,11.9-11.9V193.68a6.94,6.94,0,0,0-6.93-6.93h-.63c-4,0-7.48,3.24-7.48,6.93V205.5H128.87V170.61l36.56-36.53a3.63,3.63,0,0,1-.77-.89c-1.24-2-.51-4.7.25-7.59a22.24,22.24,0,0,0,1-5.51,1.27,1.27,0,0,1,0-.34,14.7,14.7,0,0,0-5.56.7l-.3.09c-.52.11-3.9,1.43-20.12,17.65l-21.74,21.74H85.46l26.46-26.83a7.81,7.81,0,0,0,1.65-8.61A7.53,7.53,0,0,0,106.63,120Z"/></svg>